<svg xmlns="http://www.w3.org/2000/svg" viewBox="0 0 100 100" width="100" height="100">
  <path d="M69.9,26c0-0.8-0.3-1.6-0.9-2.2c-0.6-0.6-1.4-0.9-2.2-0.9h-17V20c0-0.8-0.3-1.6-0.9-2.2c-0.6-0.6-1.4-0.9-2.2-0.9
    h-14.5c-0.8,0-1.6,0.3-2.2,0.9c-0.6,0.6-0.9,1.4-0.9,2.2v60c0,0.8,0.3,1.6,0.9,2.2c0.6,0.6,1.4,0.9,2.2,0.9h34.5c0.8,0,1.6-0.3,2.2-0.9
    c0.6-0.6,0.9-1.4,0.9-2.2v-2.8h0V26z" fill="#e6e6e6"/>
  <rect x="35.5" y="37.1" width="22.9" height="3.1" fill="#cccccc"/>
  <rect x="35.5" y="45.7" width="22.9" height="3.1" fill="#cccccc"/>
  <rect x="35.5" y="54.3" width="22.9" height="3.1" fill="#cccccc"/>
  <rect x="35.5" y="62.9" width="13.2" height="3.1" fill="#cccccc"/>
</svg> 