<svg xmlns="http://www.w3.org/2000/svg" viewBox="0 0 100 100" width="100" height="100">
  <path d="M75.5,36.1c0-0.5-0.2-1-0.5-1.4c-0.7-0.9-1.9-1.1-2.9-0.5c-0.3,0.2-0.6,0.5-0.8,0.8c-0.7-0.8-1.7-1.3-2.8-1.3
  c-1,0-1.9,0.4-2.6,1.1c-0.7-0.7-1.6-1.1-2.6-1.1c-0.9,0-1.8,0.3-2.4,0.9c-0.7-0.9-1.9-1.5-3.1-1.5c-0.9,0-1.7,0.3-2.4,0.8V32
  c0-2.2-1.8-4-4-4c-1.2,0-2.3,0.5-3,1.4c-0.7-0.8-1.8-1.4-3-1.4c-2.2,0-4,1.8-4,4v15.7c-1.4,0.6-2.5,1.6-3.4,2.8c-1.4,2-2.2,4.3-2.2,6.8
  v7c0,0.8,0.2,1.6,0.5,2.3c2,5,6.7,11.5,8.6,14c0.8,1.1,2.1,1.7,3.4,1.7h22.7c1.9,0,3.5-1.3,4-3.1l3.1-12.5c0.5-1.9-0.6-3.8-2.5-4.3
  c-0.3-0.1-0.6-0.1-0.9-0.1c-1.6,0-3,1.1-3.4,2.7l-0.6,2.5h-2.2l8.9-8.9c2.3-2.3,3.5-5.3,3.5-8.5v-7.9c0-1.1-0.4-2.1-1.1-2.9
  c0.7-0.7,1.1-1.7,1.1-2.8L75.5,36.1z" fill="#785544"/>
  <path d="M67.1,40.4c0,1.2-1,2.2-2.2,2.2c-1.2,0-2.2-1-2.2-2.2v-1c0-1.2,1-2.2,2.2-2.2c1.2,0,2.2,1,2.2,2.2V40.4z" fill="#6a4a3b"/>
  <path d="M61.2,40.4c0,1.2-1,2.2-2.2,2.2c-1.2,0-2.2-1-2.2-2.2v-1c0-1.2,1-2.2,2.2-2.2c1.2,0,2.2,1,2.2,2.2V40.4z" fill="#6a4a3b"/>
  <path d="M55.3,41.4c0,1.2-1,2.2-2.2,2.2c-1.2,0-2.2-1-2.2-2.2v-4.2c0-1.2,1-2.2,2.2-2.2c1.2,0,2.2,1,2.2,2.2V41.4z" fill="#6a4a3b"/>
  <path d="M49.4,40.4c0,1.2-1,2.2-2.2,2.2c-1.2,0-2.2-1-2.2-2.2V32c0-1.2,1-2.2,2.2-2.2c1.2,0,2.2,1,2.2,2.2V40.4z" fill="#6a4a3b"/>
  <path d="M43.6,40.4c0,1.2-1,2.2-2.2,2.2c-1.2,0-2.2-1-2.2-2.2V32c0-1.2,1-2.2,2.2-2.2c1.2,0,2.2,1,2.2,2.2V40.4z" fill="#6a4a3b"/>
  <path d="M70,48.5c0,2.3-0.9,4.6-2.6,6.3L49.2,73h-5.4c0,0-2.4-3.1-4.9-7.1c-2.5-4.1-5.1-8.9-5.1-8.9v-7c0-1.6,0.6-3.1,1.6-4.4
  c1.1-1.5,2.7-2.4,4.4-2.4c3.1,0,5.6,2.5,5.6,5.6v10.8c0,0.8,0.4,1.5,1.1,1.9c0.3,0.2,0.6,0.3,1,0.3c0.4,0,0.8-0.1,1.1-0.3l11.5-8.4
  c1.8-1.4,4.4-1,5.7,0.8c0.7,0.9,0.9,2,0.7,3.1c-0.2,1.1-0.8,2-1.7,2.6L59.5,73h7.9l2.1-8.4c0-0.1,0-0.1,0-0.2c0.1-0.5,0.6-0.9,1.1-0.9
  c0.1,0,0.2,0,0.3,0c0.6,0.2,1,0.8,0.8,1.4L68.8,73H72l-2.1-24.5H70z" fill="#6a4a3b"/>
</svg> 