<svg xmlns="http://www.w3.org/2000/svg" viewBox="0 0 100 100" width="100" height="100">
  <path d="M71.7,41.7L58.1,28.1c-0.4-0.4-0.9-0.6-1.4-0.6c-0.5,0-1,0.2-1.4,0.6c-0.8,0.8-0.8,2,0,2.8l9.9,9.9L29.8,55.7
    c-0.4-0.2-0.8-0.3-1.2-0.3c-0.8,0-1.5,0.3-2,0.9l-4.5,4.5c-1.1,1.1-1.1,2.9,0,4l6.2,6.2c0.5,0.5,1.3,0.9,2,0.9c0.7,0,1.5-0.3,2-0.9
    L37,67c0.8-0.8,1-1.9,0.7-2.9l11.3-6.5l9.9,9.9c0.4,0.4,0.9,0.6,1.4,0.6c0.5,0,1-0.2,1.4-0.6c0.8-0.8,0.8-2,0-2.8L48.8,51.9L60.1,45
    l9.5,9.5c0.4,0.4,0.9,0.6,1.4,0.6c0.5,0,1-0.2,1.4-0.6l7.9-7.9c2.3-2.3,2.3-6.1,0-8.4L71.7,41.7z" fill="#a5a5a5"/>
  <path d="M63.2,36.2L58.1,31c-0.4-0.4-0.9-0.6-1.4-0.6c-0.5,0-1,0.2-1.4,0.6c-0.8,0.8-0.8,2,0,2.8l9.9,9.9L27.6,60.3
    c-0.5,0.3-0.9,0.8-1,1.4c-0.1,0.6,0,1.1,0.4,1.6l10.1,10.1c0.3,0.3,0.8,0.5,1.3,0.5c0.1,0,0.2,0,0.3,0c0.6-0.1,1.1-0.5,1.4-1l15.6-30
    l9.9,9.9c0.4,0.4,0.9,0.6,1.4,0.6c0.5,0,1-0.2,1.4-0.6c0.8-0.8,0.8-2,0-2.8L63.2,45l-0.3-0.1l0.3-0.2L63.2,36.2z" fill="#7f7f7f"/>
  <path d="M56.7,30.3c-0.8,0.8-0.8,2,0,2.8l9.9,9.9L29,59.7c-0.4-0.2-0.8-0.3-1.2-0.3c-0.8,0-1.5,0.3-2,0.9l-4.5,4.5
    c-1.1,1.1-1.1,2.9,0,4l6.2,6.2c0.5,0.5,1.3,0.9,2,0.9c0.7,0,1.5-0.3,2-0.9l4.8-4.8c0.6-0.6,0.9-1.3,0.9-2c0-0.4-0.1-0.8-0.3-1.2
    l15.7-36.6c0.8-0.8,0.8-2,0-2.8c-0.4-0.4-0.9-0.6-1.4-0.6C57.6,29.7,57.1,29.9,56.7,30.3z" fill="#595959"/>
  <path d="M32.9,64.1c-1.5,0-2.7,1.2-2.7,2.7c0,1.5,1.2,2.7,2.7,2.7c1.5,0,2.7-1.2,2.7-2.7C35.6,65.3,34.4,64.1,32.9,64.1z" fill="#7f7f7f"/>
  <path d="M27.7,69.3c-1.5,0-2.7,1.2-2.7,2.7c0,1.5,1.2,2.7,2.7,2.7c1.5,0,2.7-1.2,2.7-2.7C30.4,70.5,29.2,69.3,27.7,69.3z" fill="#7f7f7f"/>
</svg> 